# Blender 5.1.1
# www.blender.org
mtllib banarambit.mtl
o BANANA
v 0.738562 -0.002864 -0.057103
v 0.780413 -0.117961 -0.029202
v 0.738562 -0.002864 0.058472
v 0.780413 -0.117960 0.030647
v 0.774487 -0.190569 -0.031378
v 0.774487 -0.190569 0.032747
v 0.566288 0.196634 0.114048
v 0.738562 -0.002864 0.058472
v 0.566288 0.196634 -0.112679
v 0.738562 -0.002864 -0.057103
v 0.780413 -0.117960 0.030647
v 0.774487 -0.190569 0.032747
v 0.780413 -0.117961 -0.029202
v -0.481238 -0.074172 -0.122203
v -0.481238 -0.074172 0.123572
v -0.576112 -0.134231 0.060496
v -0.143137 0.054796 -0.159328
v -0.614287 -0.170042 -0.040378
v -0.637987 -0.192296 0.030122
v -0.614287 -0.170042 0.041747
v 0.078413 0.057088 -0.153553
v 0.078413 0.057088 0.154922
v 0.299963 -0.007481 0.138797
v 0.430012 -0.085787 -0.112679
v 0.552338 -0.145256 0.058472
v 0.430012 -0.085787 0.114048
v 0.552338 -0.145257 -0.057103
v 0.644213 -0.195533 0.021646
v 0.714788 -0.231057 -0.031378
v 0.714788 -0.231057 0.032747
v -0.394087 -0.024879 -0.152729
v -0.481238 -0.074172 0.123572
v -0.481238 -0.074172 -0.122203
v -0.394087 -0.024879 0.154098
v -0.143137 0.054796 -0.159328
v -0.143137 0.054796 0.160697
v 0.078413 0.057088 0.154922
v -0.576112 -0.134231 0.060496
v 0.299963 -0.007481 0.138797
v -0.614287 -0.170042 0.041747
v -0.637987 -0.192296 0.030122
v -0.576112 -0.134231 -0.059053
v -0.614287 -0.170042 -0.040378
v -0.637987 -0.192296 -0.028753
v 0.078413 0.057088 -0.153553
v 0.299963 -0.007481 -0.137428
v 0.430012 -0.085787 0.114048
v 0.430012 -0.085787 -0.112679
v 0.552338 -0.145256 0.058472
v 0.552338 -0.145257 -0.057103
v 0.644213 -0.195533 0.021646
v 0.644213 -0.195533 -0.020278
v 0.714788 -0.231057 -0.031378
v -0.481238 -0.074172 -0.122203
v -0.622687 0.182746 -0.122203
v -0.394087 -0.024879 -0.152729
v -0.452288 0.303212 -0.152729
v -0.685312 0.007301 -0.059053
v -0.576112 -0.134231 -0.059053
v -0.143137 0.054796 -0.159328
v -0.678188 -0.081955 -0.040378
v -0.614287 -0.170042 -0.040378
v -0.708427 -0.175981 -0.028753
v -0.637987 -0.192296 -0.028753
v -0.181762 0.402563 -0.159328
v 0.027488 0.399940 -0.153553
v 0.078413 0.057088 -0.153553
v 0.263738 0.363029 -0.137428
v 0.299963 -0.007481 -0.137428
v 0.566288 0.196634 -0.112679
v 0.430012 -0.085787 -0.112679
v 0.738562 -0.002864 -0.057103
v 0.552338 -0.145257 -0.057103
v 0.714788 -0.231057 -0.031378
v 0.780413 -0.117961 -0.029202
v 0.644213 -0.195533 -0.020278
v 0.774487 -0.190569 -0.031378
v -0.685312 0.007301 -0.059053
v -0.678188 -0.081955 -0.040378
v -0.685312 0.007301 0.060496
v -0.678188 -0.081955 0.041747
v -0.622687 0.182746 0.123572
v -0.622687 0.182746 -0.122203
v -0.685312 0.007301 0.060496
v -0.685312 0.007301 -0.059053
v -0.678188 -0.081955 0.041747
v -0.708427 -0.175981 -0.028753
v -0.678188 -0.081955 -0.040378
v -0.708427 -0.175981 0.030122
v -0.452288 0.303212 -0.152729
v -0.181762 0.402563 -0.159328
v -0.181762 0.402563 0.160697
v 0.263738 0.363029 -0.137428
v 0.566288 0.196634 -0.112679
v 0.566288 0.196634 0.114048
v -0.622687 0.182746 0.123572
v -0.452288 0.303212 0.154098
v -0.181762 0.402563 0.160697
v -0.452288 0.303212 -0.152729
v -0.622687 0.182746 -0.122203
v 0.027488 0.399940 0.154922
v -0.181762 0.402563 -0.159328
v 0.027488 0.399940 -0.153553
v 0.263738 0.363029 0.138797
v 0.263738 0.363029 -0.137428
v 0.566288 0.196634 0.114048
v -0.481238 -0.074172 0.123572
v -0.394087 -0.024879 0.154098
v -0.143137 0.054796 0.160697
v 0.078413 0.057088 0.154922
v -0.622687 0.182746 0.123572
v -0.452288 0.303212 0.154098
v -0.181762 0.402563 0.160697
v 0.027488 0.399940 0.154922
v -0.685312 0.007301 0.060496
v -0.576112 -0.134231 0.060496
v 0.263738 0.363029 0.138797
v 0.299963 -0.007481 0.138797
v 0.566288 0.196634 0.114048
v -0.678188 -0.081955 0.041747
v -0.708427 -0.175981 0.030122
v -0.614287 -0.170042 0.041747
v -0.637987 -0.192296 0.030122
v 0.430012 -0.085787 0.114048
v 0.738562 -0.002864 0.058472
v 0.552338 -0.145256 0.058472
v 0.780413 -0.117960 0.030647
v 0.644213 -0.195533 0.021646
v 0.774487 -0.190569 0.032747
v 0.714788 -0.231057 0.032747
vn 0.7408 0.2522 0.6226
vn 0.7816 0.0079 -0.6238
vn 0.7408 0.2522 -0.6226
vn 0.7816 0.0079 0.6237
vn 0.5028 0.0157 0.8642
vn 0.5028 0.0156 -0.8642
vn 0.5505 0.5662 -0.6134
vn 0.5505 0.5663 0.6134
vn 0.5028 0.0158 0.8642
vn 0.7816 0.0079 -0.6237
vn 0.7816 0.0078 0.6238
vn 0.1967 -0.7709 -0.6058
vn 0.1966 -0.7709 0.6058
vn 0.2524 -0.7655 0.5919
vn 0.4436 -0.6416 0.6258
vn 0.4089 -0.6684 -0.6213
vn 0.4089 -0.6685 0.6213
vn -0.0629 -0.7550 0.6528
vn 0.1187 -0.7516 -0.6488
vn -0.0629 -0.7549 -0.6528
vn -0.2281 -0.7001 0.6766
vn -0.2511 -0.7299 -0.6357
vn -0.2209 -0.7812 0.5839
vn -0.2511 -0.7299 0.6358
vn -0.2209 -0.7812 -0.5839
vn -0.3398 -0.7664 0.5452
vn -0.3837 -0.5873 -0.7127
vn -0.3837 -0.5873 0.7127
vn 0.2055 -0.7191 -0.6639
vn 0.1967 -0.7709 0.6058
vn 0.1966 -0.7710 -0.6058
vn 0.2054 -0.7191 0.6638
vn 0.1187 -0.7516 0.6488
vn -0.0628 -0.7549 0.6528
vn 0.4089 -0.6684 0.6213
vn 0.2525 -0.7655 -0.5919
vn 0.2525 -0.7655 0.5919
vn 0.1966 -0.7709 -0.6058
vn 0.4089 -0.6685 -0.6213
vn 0.4436 -0.6416 -0.6258
vn -0.2281 -0.7002 -0.6766
vn -0.2512 -0.7299 0.6358
vn -0.2512 -0.7299 -0.6358
vn -0.2209 -0.7811 0.5840
vn -0.2210 -0.7811 -0.5840
vn -0.3397 -0.7664 -0.5452
vn -0.3836 -0.5873 -0.7127
vn 0.1967 -0.7710 -0.6057
vn -0.7078 0.4326 -0.5584
vn 0.2055 -0.7191 -0.6638
vn -0.4098 0.7014 -0.5832
vn -0.8531 -0.0237 -0.5213
vn 0.2526 -0.7655 -0.5918
vn 0.1187 -0.7517 -0.6488
vn -0.7763 -0.0627 -0.6273
vn 0.4090 -0.6685 -0.6212
vn -0.7337 0.1104 -0.6705
vn 0.4436 -0.6416 -0.6257
vn -0.1418 0.8273 -0.5436
vn 0.0947 0.8122 -0.5756
vn -0.0629 -0.7550 -0.6527
vn 0.2996 0.7726 -0.5597
vn -0.2282 -0.7002 -0.6765
vn 0.5505 0.5663 -0.6134
vn -0.2512 -0.7299 -0.6357
vn -0.3397 -0.7664 -0.5451
vn 0.5028 0.0157 -0.8642
vn -0.3837 -0.5873 -0.7126
vn -0.7762 -0.0628 -0.6273
vn -0.8530 -0.0237 0.5213
vn -0.8530 -0.0237 -0.5213
vn -0.7762 -0.0628 0.6273
vn -0.7078 0.4325 0.5585
vn -0.7336 0.1104 -0.6705
vn -0.7762 -0.0627 0.6273
vn -0.7762 -0.0627 -0.6273
vn -0.7336 0.1105 0.6706
vn -0.1418 0.8272 0.5436
vn 0.2996 0.7726 -0.5598
vn 0.5505 0.5662 0.6135
vn 0.5505 0.5662 -0.6135
vn -0.7079 0.4325 0.5584
vn -0.4098 0.7014 0.5832
vn -0.1418 0.8273 0.5436
vn -0.7079 0.4325 -0.5584
vn 0.0946 0.8122 0.5757
vn -0.1418 0.8272 -0.5437
vn -0.1419 0.8272 0.5436
vn 0.0946 0.8122 -0.5757
vn 0.2996 0.7726 0.5598
vn 0.2995 0.7726 -0.5598
vn 0.2055 -0.7191 0.6638
vn -0.7079 0.4326 0.5584
vn 0.1967 -0.7710 0.6057
vn 0.1187 -0.7517 0.6488
vn 0.0946 0.8122 0.5756
vn -0.0629 -0.7550 0.6527
vn -0.8531 -0.0237 0.5213
vn 0.2526 -0.7655 0.5918
vn 0.2996 0.7726 0.5597
vn -0.2282 -0.7002 0.6765
vn -0.7763 -0.0627 0.6273
vn -0.7336 0.1105 0.6705
vn 0.4089 -0.6685 0.6212
vn 0.4436 -0.6416 0.6257
vn -0.2512 -0.7299 0.6357
vn 0.7408 0.2522 0.6225
vn 0.7817 0.0079 0.6237
vn -0.3398 -0.7664 0.5451
vn -0.3837 -0.5873 0.7126
vt 30.009600 1.014770
vt 29.995001 1.033950
vt 29.990400 1.014770
vt 30.004999 1.033950
vt 30.005301 1.046050
vt 29.994699 1.046050
vt 29.981100 0.981520
vt 30.018900 0.981520
vt 30.086201 1.020480
vt 30.086201 0.979517
vt 30.101999 0.990038
vt 30.112301 0.995090
vt 30.108400 1.006850
vt 30.108400 0.993154
vt 29.992901 0.974292
vt 30.029900 1.026660
vt 29.992901 1.025710
vt 29.955999 0.976984
vt 29.934299 1.018890
vt 29.913900 0.990367
vt 29.934299 0.981109
vt 29.913900 1.009630
vt 29.898600 0.996505
vt 29.886900 1.005340
vt 29.886900 0.994661
vt 30.071699 1.025570
vt 30.071699 0.974433
vt 30.029900 0.973336
vt 30.101999 1.009960
vt 30.112301 1.004910
vt 29.955999 1.023020
vt 29.898600 1.003500
vt 29.913799 1.026650
vt 29.890200 0.983835
vt 29.928301 1.018440
vt 29.918600 0.963757
vt 29.879801 1.013080
vt 29.898001 1.036660
vt 29.970100 1.005160
vt 29.881001 1.027950
vt 29.891600 1.042630
vt 29.875900 1.043620
vt 29.887699 1.046340
vt 29.963699 0.947198
vt 29.998600 0.947636
vt 30.007099 1.004780
vt 30.038000 0.953787
vt 30.044001 1.015540
vt 30.088400 0.981520
vt 30.065701 1.028590
vt 30.117100 1.014770
vt 30.086100 1.038500
vt 30.124100 1.033950
vt 30.101400 1.046880
vt 30.123100 1.046050
vt 30.113100 1.052800
vt 30.006800 1.027950
vt 29.990000 1.013080
vt 30.010000 1.013080
vt 29.993200 1.027950
vt 30.020500 0.983835
vt 29.979500 0.983835
vt 30.004900 1.043620
vt 29.995100 1.043620
vt 29.918600 1.025570
vt 29.963699 0.973336
vt 29.963699 1.026660
vt 30.038000 1.023020
vt 30.088400 0.981109
vt 30.088400 1.018890
vt 29.890200 0.979517
vt 29.918600 0.974433
vt 29.890200 1.020480
vt 29.998600 0.974292
vt 29.998600 1.025710
vt 30.038000 0.976984
vt 30.071699 1.018440
vt 30.109800 0.983835
vt 30.086201 1.026650
vt 30.029900 1.005160
vt 30.081400 0.963757
vt 30.036301 0.947198
vt 30.001400 0.947636
vt 29.992901 1.004780
vt 30.120199 1.013080
vt 30.101999 1.036660
vt 29.962000 0.953787
vt 29.955999 1.015540
vt 29.911600 0.981520
vt 30.118999 1.027950
vt 30.124100 1.043620
vt 30.108400 1.042630
vt 30.112301 1.046340
vt 29.934299 1.028590
vt 29.882900 1.014770
vt 29.913900 1.038500
vt 29.875900 1.033950
vt 29.898600 1.046880
vt 29.876900 1.046050
vt 29.886900 1.052800
s 1
usemtl Meshesbananapeelcube1Mtl
f 3/1/1 2/2/2 1/3/3
f 2/2/2 3/1/1 4/4/4
f 2/2/2 6/5/5 5/6/6
f 8/1/1 9/7/7 7/8/8
f 9/7/7 8/1/1 10/3/3
f 12/5/9 13/2/10 11/4/11
f 14/9/12 15/10/13 16/11/14
f 19/12/15 18/13/16 20/14/17
f 22/15/18 17/16/19 21/17/20
f 21/17/20 23/18/21 22/15/18
f 24/19/22 25/20/23 26/21/24
f 27/22/25 28/23/26 25/20/23
f 28/23/26 29/24/27 30/25/28
f 31/26/29 32/10/30 33/9/31
f 32/10/30 31/26/29 34/27/32
f 35/16/19 34/27/32 31/26/29
f 34/27/32 35/16/19 36/28/33
f 35/16/19 37/15/34 36/28/33
f 40/14/35 42/29/36 38/11/37
f 33/9/38 38/11/37 42/29/36
f 42/29/36 40/14/35 43/13/39
f 43/13/16 41/12/15 44/30/40
f 39/18/21 45/17/20 46/31/41
f 46/31/41 47/21/42 39/18/21
f 47/21/42 46/31/41 48/19/43
f 49/20/44 48/19/43 50/22/45
f 51/23/26 50/22/25 52/32/46
f 52/32/46 53/24/47 51/23/26
f 54/33/48 55/34/49 56/35/50
f 56/35/50 55/34/49 57/36/51
f 54/33/48 58/37/52 55/34/49
f 58/37/52 54/33/48 59/38/53
f 57/36/51 60/39/54 56/35/50
f 59/38/53 61/40/55 58/37/52
f 61/40/55 59/38/53 62/41/56
f 62/41/56 63/42/57 61/40/55
f 63/42/57 62/41/56 64/43/58
f 60/39/54 57/36/51 65/44/59
f 66/45/60 60/39/54 65/44/59
f 60/39/54 66/45/60 67/46/61
f 68/47/62 67/46/61 66/45/60
f 67/46/61 68/47/62 69/48/63
f 68/47/62 70/49/64 69/48/63
f 69/48/63 70/49/64 71/50/65
f 72/51/3 71/50/65 70/49/64
f 71/50/65 72/51/3 73/52/25
f 73/52/25 72/51/3 75/53/10
f 73/52/25 75/53/10 76/54/66
f 76/54/66 77/55/67 74/56/68
f 76/54/66 75/53/10 77/55/67
f 79/57/69 80/58/70 78/59/71
f 80/58/70 79/57/69 81/60/72
f 83/61/49 84/58/70 82/62/73
f 84/58/70 83/61/49 85/59/71
f 87/63/74 86/60/75 88/57/76
f 86/60/75 87/63/74 89/64/77
f 90/65/51 92/66/78 91/67/59
f 93/68/79 95/69/80 94/70/81
f 99/65/51 96/71/82 97/72/83
f 98/66/84 99/65/51 97/72/83
f 96/71/82 99/65/51 100/73/85
f 101/74/86 102/67/87 98/66/88
f 102/67/87 101/74/86 103/75/89
f 104/76/90 103/75/89 101/74/86
f 103/75/89 104/76/90 105/68/91
f 106/69/80 105/68/91 104/76/90
f 108/77/92 111/78/93 107/79/94
f 109/80/95 112/81/83 108/77/92
f 111/78/93 108/77/92 112/81/83
f 112/81/83 109/80/95 113/82/84
f 109/80/95 114/83/96 113/82/84
f 114/83/96 109/80/95 110/84/97
f 107/79/94 111/78/93 115/85/98
f 115/85/98 116/86/99 107/79/94
f 110/84/97 117/87/100 114/83/96
f 117/87/100 110/84/97 118/88/101
f 118/88/101 119/89/8 117/87/100
f 116/86/99 115/85/98 120/90/102
f 120/90/102 121/91/103 122/92/104
f 120/90/102 122/92/104 116/86/99
f 122/92/104 121/91/103 123/93/105
f 119/89/8 118/88/101 124/94/106
f 124/94/106 125/95/107 119/89/8
f 125/95/107 124/94/106 126/96/23
f 126/96/23 127/97/108 125/95/107
f 127/97/108 126/96/23 128/98/109
f 128/98/109 129/99/5 127/97/108
f 129/99/5 128/98/109 130/100/110
o bananabits
v 0.781195 -0.199857 -0.034108
v 0.771520 -0.188103 -0.032533
v 0.781570 -0.215841 -0.021957
v 0.781195 -0.199857 0.033168
v 0.771520 -0.188103 0.031593
v 0.781195 -0.199857 0.033168
v 0.781570 -0.215841 0.021017
v 0.781570 -0.215841 -0.021957
v -0.640955 -0.189828 0.028968
v -0.648605 -0.221123 0.034442
v -0.648605 -0.221123 -0.035382
v -0.640955 -0.189828 -0.029908
v -0.669755 -0.278577 0.039093
v -0.669755 -0.278577 -0.040033
v -0.669755 -0.278577 -0.040033
v -0.677705 -0.295273 -0.040033
v -0.677705 -0.295273 0.039093
v -0.669755 -0.278577 0.039093
v 0.718495 -0.242400 0.033168
v 0.732595 -0.249094 -0.021957
v 0.732595 -0.249094 0.021017
v 0.718495 -0.242400 0.033168
v 0.781570 -0.215841 0.021017
v 0.781570 -0.215841 -0.021957
v 0.732595 -0.249094 0.021017
v 0.732595 -0.249094 -0.021957
v 0.718495 -0.242400 -0.034108
v -0.772258 -0.273367 0.039093
v -0.677705 -0.295273 0.039093
v -0.772258 -0.280087 0.032192
v -0.683480 -0.300660 0.032192
v -0.772258 -0.280087 -0.033132
v -0.683480 -0.300660 -0.033132
v -0.677705 -0.295273 -0.040033
v -0.772258 -0.273367 -0.040033
v -0.677705 -0.295273 -0.040033
v -0.772258 -0.280087 -0.033132
v -0.683480 -0.300660 -0.033132
v -0.677705 -0.295273 0.039093
v -0.683480 -0.300660 0.032192
v 0.781195 -0.199857 -0.034108
v 0.718495 -0.242400 -0.034108
v 0.711820 -0.228591 -0.032533
v 0.771520 -0.188103 -0.032533
v 0.732595 -0.249094 -0.021957
v 0.781570 -0.215841 -0.021957
v -0.640955 -0.189828 -0.029908
v -0.732087 -0.201777 -0.035382
v -0.711395 -0.173514 -0.029908
v -0.648605 -0.221123 -0.035382
v -0.764323 -0.256671 -0.040033
v -0.669755 -0.278577 -0.040033
v -0.772258 -0.273367 -0.040033
v -0.677705 -0.295273 -0.040033
v 0.711820 -0.228591 -0.032533
v 0.718495 -0.242400 0.033168
v 0.711820 -0.228591 0.031593
v 0.718495 -0.242400 0.033168
v 0.718495 -0.242400 -0.034108
v 0.711820 -0.228591 -0.032533
v -0.732087 -0.201777 0.034442
v -0.711395 -0.173514 0.028968
v -0.732087 -0.201777 -0.035382
v -0.764323 -0.256671 0.039093
v -0.764323 -0.256671 -0.040033
v -0.772258 -0.273367 -0.040033
v -0.772258 -0.273367 0.039093
v -0.772258 -0.280087 0.032192
v -0.772258 -0.280087 -0.033132
v -0.732087 -0.201777 -0.035382
v -0.711395 -0.173514 -0.029908
v -0.711395 -0.173514 0.028968
v -0.772258 -0.273367 -0.040033
v -0.772258 -0.280087 0.032192
v -0.772258 -0.273367 0.039093
v 0.781195 -0.199857 0.033168
v 0.711820 -0.228591 0.031593
v 0.718495 -0.242400 0.033168
v 0.771520 -0.188103 0.031593
v 0.781570 -0.215841 0.021017
v 0.732595 -0.249094 0.021017
v -0.732087 -0.201777 0.034442
v -0.640955 -0.189828 0.028968
v -0.711395 -0.173514 0.028968
v -0.764323 -0.256671 0.039093
v -0.772258 -0.273367 0.039093
v -0.648605 -0.221123 0.034442
v -0.669755 -0.278577 0.039093
v -0.677705 -0.295273 0.039093
vn 0.7052 0.1645 0.6896
vn 0.7716 -0.5433 -0.3307
vn 0.7052 0.1645 -0.6896
vn 0.5690 0.5531 -0.6085
vn 0.5690 0.5531 0.6085
vn 0.7716 -0.5434 0.3307
vn 0.7085 -0.1338 -0.6929
vn 0.7102 -0.0473 0.7024
vn 0.7085 -0.1339 0.6929
vn 0.7102 -0.0473 -0.7024
vn 0.6787 -0.2604 0.6867
vn 0.6787 -0.2604 -0.6867
vn 0.4876 -0.6213 0.6134
vn 0.4875 -0.6213 -0.6134
vn 0.6787 -0.2605 0.6867
vn -0.3783 -0.6777 0.6305
vn 0.1263 -0.9550 -0.2684
vn 0.1263 -0.9550 0.2684
vn 0.1263 -0.9550 0.2683
vn 0.7717 -0.5433 -0.3307
vn 0.7716 -0.5433 0.3307
vn 0.1263 -0.9550 -0.2683
vn -0.3783 -0.6777 -0.6305
vn -0.7166 -0.0787 0.6930
vn -0.6217 -0.7240 0.2990
vn 0.1807 -0.9509 0.2515
vn -0.6217 -0.7240 -0.2990
vn 0.1808 -0.9508 -0.2514
vn 0.4876 -0.6213 -0.6134
vn -0.7167 -0.0787 -0.6930
vn 0.1807 -0.9509 -0.2514
vn 0.1807 -0.9508 0.2515
vn 0.7053 0.1646 -0.6896
vn -0.3783 -0.6778 -0.6304
vn -0.6294 -0.2124 -0.7474
vn 0.5690 0.5532 -0.6085
vn 0.7103 -0.0473 -0.7023
vn -0.5908 0.4727 -0.6538
vn -0.5598 0.5282 -0.6385
vn 0.7086 -0.1339 -0.6928
vn -0.6451 0.3698 -0.6687
vn 0.6788 -0.2605 -0.6866
vn -0.6294 -0.2124 -0.7475
vn -0.6294 -0.2125 0.7475
vn -0.5597 0.5282 0.6386
vn -0.5908 0.4726 -0.6539
vn -0.5908 0.4727 0.6539
vn -0.6450 0.3698 0.6687
vn -0.6451 0.3697 -0.6687
vn -0.7166 -0.0788 -0.6930
vn -0.7166 -0.0788 0.6930
vn -0.6216 -0.7240 0.2991
vn -0.6216 -0.7239 -0.2991
vn -0.5597 0.5282 -0.6386
vn -0.6216 -0.7240 0.2990
vn 0.7053 0.1646 0.6895
vn -0.6295 -0.2124 0.7474
vn -0.3784 -0.6778 0.6304
vn 0.5690 0.5532 0.6085
vn 0.7717 -0.5433 0.3307
vn -0.5909 0.4726 0.6538
vn 0.7103 -0.0473 0.7023
vn -0.5598 0.5282 0.6385
vn -0.6451 0.3697 0.6687
vn 0.7086 -0.1338 0.6928
vn 0.6788 -0.2605 0.6866
vn -0.7167 -0.0787 0.6930
vt 10.005600 -55.006199
vt 9.996410 -55.003502
vt 9.994390 -55.006199
vt 9.994660 -55.008202
vt 10.005300 -55.008202
vt 10.003600 -55.003502
vt 9.994180 -55.002701
vt 10.004900 -55.007900
vt 10.005800 -55.002701
vt 9.995090 -55.007900
vt 10.006600 -54.993099
vt 9.993410 -54.993099
vt 10.006600 -54.990299
vt 9.993410 -54.990299
vt 9.881030 -55.005600
vt 9.878680 -54.996399
vt 9.878680 -55.003601
vt 9.870510 -54.996399
vt 9.870510 -55.003601
vt 9.881030 -54.994400
vt 10.113700 -55.006599
vt 10.129500 -55.006599
vt 10.129500 -55.005402
vt 10.114700 -55.005402
vt 10.129500 -54.994598
vt 10.114700 -54.994598
vt 10.113700 -54.993401
vt 10.129500 -54.993401
vt 10.129400 -55.006199
vt 10.119000 -54.999100
vt 10.117900 -55.001400
vt 10.127800 -55.008202
vt 10.129500 -55.003502
vt 10.121300 -54.998001
vt 9.892390 -55.007900
vt 9.877210 -55.005901
vt 9.880660 -55.010601
vt 9.891120 -55.002701
vt 9.871840 -54.996700
vt 9.887590 -54.993099
vt 9.870510 -54.993999
vt 9.886270 -54.990299
vt 10.005300 -55.001400
vt 9.994390 -54.999100
vt 9.994660 -55.001400
vt 10.005600 -54.999100
vt 9.995090 -55.010601
vt 10.005800 -55.005901
vt 9.994180 -55.005901
vt 9.993410 -54.996700
vt 10.006600 -54.996700
vt 10.006600 -54.993999
vt 9.993410 -54.993999
vt 9.994560 -54.992802
vt 10.005400 -54.992802
vt 10.004900 -55.010601
vt 9.870580 -55.006199
vt 9.882140 -55.001400
vt 9.881030 -54.999100
vt 9.872190 -55.008202
vt 9.870510 -55.003502
vt 9.878680 -54.998001
vt 10.122800 -55.005901
vt 10.107600 -55.007900
vt 10.119300 -55.010601
vt 10.128200 -54.996700
vt 10.108900 -55.002701
vt 10.112400 -54.993099
vt 10.129500 -54.993999
vt 10.113700 -54.990299
s 1
usemtl Meshesbananapeelcube0011Mtl
f 134/101/111 133/102/112 131/103/113
f 132/104/114 134/101/111 131/103/113
f 134/101/111 132/104/114 135/105/115
f 138/102/112 136/101/111 137/106/116
f 141/107/117 139/108/118 140/109/119
f 139/108/118 141/107/117 142/110/120
f 143/111/121 141/107/117 140/109/119
f 141/107/117 143/111/121 144/112/122
f 145/112/122 147/113/123 146/114/124
f 147/113/123 145/112/122 148/111/125
f 149/115/126 150/116/127 151/117/128
f 155/117/129 154/118/130 153/119/131
f 154/118/130 155/117/129 156/116/132
f 152/115/126 157/120/133 156/116/132
f 159/121/123 158/122/134 160/123/135
f 159/121/123 160/123/135 161/124/136
f 160/123/135 162/125/137 161/124/136
f 162/125/137 163/126/138 161/124/136
f 164/127/139 161/124/136 163/126/138
f 166/127/139 167/125/137 165/128/140
f 167/125/137 166/127/139 168/126/141
f 166/127/139 169/121/123 170/124/142
f 171/129/143 172/130/144 173/131/145
f 171/129/143 173/131/145 174/132/146
f 176/133/112 175/134/132 172/130/144
f 176/133/112 172/130/144 171/129/143
f 177/135/147 178/136/148 179/137/149
f 178/136/148 177/135/147 180/138/150
f 180/138/150 181/139/151 178/136/148
f 181/139/151 180/138/150 182/140/152
f 182/140/152 183/141/140 181/139/151
f 183/141/140 182/140/152 184/142/139
f 185/143/153 186/144/126 187/145/154
f 188/144/126 190/143/153 189/146/133
f 192/147/155 193/148/156 191/149/157
f 193/148/156 194/150/158 191/149/157
f 194/150/158 193/148/156 195/151/159
f 196/152/160 194/150/158 195/151/159
f 194/150/158 196/152/160 197/153/161
f 198/154/162 196/152/160 199/155/163
f 200/148/156 202/147/155 201/156/164
f 203/152/160 204/154/165 205/153/134
f 206/157/166 207/158/167 208/159/168
f 207/158/167 206/157/166 209/160/169
f 208/159/168 210/161/170 206/157/166
f 210/161/170 208/159/168 211/162/129
f 212/163/171 213/164/172 214/165/173
f 215/166/174 217/167/175 212/163/171
f 213/164/172 212/163/171 217/167/175
f 217/167/175 215/166/174 218/168/176
f 216/169/177 218/168/176 215/166/174
f 218/168/176 216/169/177 219/170/123
