# Blender 5.1.1
# www.blender.org
mtllib diamondsword.mtl
o sword1
v -0.682058 1.468876 0.098572
v -0.282064 1.869696 0.098572
v -0.682058 1.468876 -0.099426
v -0.282064 1.869696 -0.099426
v 0.002940 1.585576 0.098572
v 0.144938 1.443526 0.098572
v 0.002940 1.585576 -0.099426
v 0.144938 1.443526 -0.099426
v -0.139059 1.727636 -0.099426
v -0.139059 1.727636 0.098572
v -0.282064 1.869696 -0.099426
v -0.282064 1.869696 0.098572
v -0.430059 -2.256794 0.098572
v -0.572057 -2.114744 0.098572
v -0.430059 -2.256794 -0.099426
v -0.572057 -2.114744 -0.099426
v -0.146062 -2.540914 -0.099426
v -0.146062 -2.540914 0.098572
v 0.254939 -2.140094 0.098572
v -0.146062 -2.540914 0.098572
v 0.254939 -2.140094 -0.099426
v -0.146062 -2.540914 -0.099426
v -0.674062 1.193216 0.098572
v -0.139059 1.727636 0.098572
v -0.674062 1.193216 -0.099426
v -0.139059 1.727636 -0.099426
v 0.010935 1.309916 0.098572
v 0.152934 1.167856 0.098572
v 0.010935 1.309916 -0.099426
v 0.152934 1.167856 -0.099426
v -0.665060 0.917556 0.098572
v 0.002940 1.585576 0.098572
v -0.665060 0.917556 -0.099426
v 0.002940 1.585576 -0.099426
v 0.018946 1.034256 0.098572
v 0.161936 0.892196 0.098572
v 0.018946 1.034256 -0.099426
v 0.161936 0.892196 -0.099426
v -1.016057 -1.137244 0.098572
v -1.300054 -0.853124 0.098572
v -1.016057 -1.137244 -0.099426
v -1.300054 -0.853124 -0.099426
v -0.305059 -1.847534 0.098572
v -0.447057 -1.705474 0.098572
v -0.305059 -1.847534 -0.099426
v -0.447057 -1.705474 -0.099426
v 0.103938 -1.722374 0.098572
v -0.430059 -2.256794 0.098572
v 0.103938 -1.722374 -0.099426
v -0.430059 -2.256794 -0.099426
v 0.905940 -0.920744 0.098572
v 0.637934 -1.187954 0.098572
v 0.905940 -0.920744 -0.099426
v 0.637934 -1.187954 -0.099426
v -0.657064 0.641896 0.098572
v 0.010935 1.309916 0.098572
v -0.657064 0.641896 -0.099426
v 0.010935 1.309916 -0.099426
v 0.027934 0.758586 0.098572
v 0.169947 0.616536 0.098572
v 0.027934 0.758586 -0.099426
v 0.169947 0.616536 -0.099426
v -0.740057 -1.145694 0.098572
v -0.882055 -1.003634 0.098572
v -0.740057 -1.145694 -0.099426
v -0.882055 -1.003634 -0.099426
v -0.598058 -1.287754 -0.099426
v -0.598058 -1.287754 0.098572
v -0.314062 -1.571864 0.098572
v -0.456060 -1.429804 0.098572
v -0.314062 -1.571864 -0.099426
v -0.456060 -1.429804 -0.099426
v 0.763941 -0.778684 0.098572
v 0.228938 -1.313104 0.098572
v 0.763941 -0.778684 -0.099426
v 0.228938 -1.313104 -0.099426
v 0.095942 -1.446714 0.098572
v -0.305059 -1.847534 0.098572
v 0.095942 -1.446714 -0.099426
v -0.305059 -1.847534 -0.099426
v -0.649053 0.366226 0.098572
v 0.018946 1.034256 0.098572
v -0.649053 0.366226 -0.099426
v 0.018946 1.034256 -0.099426
v 0.035944 0.482926 0.098572
v 0.177943 0.340866 0.098572
v 0.035944 0.482926 -0.099426
v 0.177943 0.340866 -0.099426
v -0.322057 -1.296204 0.098572
v -0.890066 -0.727974 0.098572
v -0.322057 -1.296204 -0.099426
v -0.890066 -0.727974 -0.099426
v 0.487940 -0.770234 0.098572
v -0.314062 -1.571864 0.098572
v 0.487940 -0.770234 -0.099426
v -0.314062 -1.571864 -0.099426
v -0.640066 0.090566 0.098572
v 0.027934 0.758586 0.098572
v -0.640066 0.090566 -0.099426
v 0.027934 0.758586 -0.099426
v 0.044947 0.207266 0.098572
v 0.186945 0.065206 0.098572
v 0.044947 0.207266 -0.099426
v 0.186945 0.065206 -0.099426
v -0.189062 -1.162594 0.098572
v -0.331060 -1.020544 0.098572
v -0.189062 -1.162594 -0.099426
v -0.331060 -1.020544 -0.099426
v -0.189062 -1.162594 0.098572
v -0.322057 -1.296204 0.098572
v -0.189062 -1.162594 -0.099426
v -0.322057 -1.296204 -0.099426
v 0.211939 -0.761784 -0.099426
v 0.211939 -0.761784 0.098572
v -0.632055 -0.185094 0.098572
v 0.035944 0.482926 0.098572
v -0.632055 -0.185094 -0.099426
v 0.035944 0.482926 -0.099426
v -1.300054 -0.853124 0.098572
v -1.032064 -0.585914 0.098572
v -1.300054 -0.853124 -0.099426
v -1.032064 -0.585914 -0.099426
v 0.621943 -0.636634 0.098572
v 0.763941 -0.778684 0.098572
v 0.621943 -0.636634 -0.099426
v 0.763941 -0.778684 -0.099426
v 0.905940 -0.920744 0.098572
v 0.905940 -0.920744 -0.099426
v 0.052943 -0.068394 0.098572
v 0.194941 -0.210454 0.098572
v 0.052943 -0.068394 -0.099426
v 0.194941 -0.210454 -0.099426
v -0.481054 -0.602824 0.098572
v -0.623067 -0.460764 0.098572
v -0.481054 -0.602824 -0.099426
v -0.623067 -0.460764 -0.099426
v 0.228938 -1.313104 0.098572
v 0.086939 -1.171054 0.098572
v 0.228938 -1.313104 -0.099426
v 0.086939 -1.171054 -0.099426
v 0.203944 -0.486124 0.098572
v -0.598058 -1.287754 0.098572
v 0.203944 -0.486124 -0.099426
v -0.598058 -1.287754 -0.099426
v -0.623067 -0.460764 0.098572
v 0.044947 0.207266 0.098572
v -0.623067 -0.460764 -0.099426
v 0.044947 0.207266 -0.099426
v -0.890066 -0.727974 0.098572
v -0.757055 -0.594364 0.098572
v -0.890066 -0.727974 -0.099426
v -0.757055 -0.594364 -0.099426
v 0.061945 -0.344064 0.098572
v 0.203944 -0.486124 0.098572
v 0.061945 -0.344064 -0.099426
v 0.203944 -0.486124 -0.099426
v 0.345942 -0.628174 0.098572
v 0.487940 -0.770234 0.098572
v 0.345942 -0.628174 -0.099426
v 0.487940 -0.770234 -0.099426
v -0.490056 -0.327154 0.098572
v -0.632055 -0.185094 0.098572
v -0.490056 -0.327154 -0.099426
v -0.632055 -0.185094 -0.099426
v 0.194941 -0.210454 0.098572
v -0.740057 -1.145694 0.098572
v 0.194941 -0.210454 -0.099426
v -0.740057 -1.145694 -0.099426
v 0.103938 -1.722374 -0.099426
v -0.430059 -2.256794 -0.099426
v -0.038061 -1.580324 -0.099426
v -0.572057 -2.114744 -0.099426
v -0.146062 -2.540914 -0.099426
v -0.030065 -1.855984 -0.099426
v 0.254939 -2.140094 -0.099426
v -0.430059 -2.256794 0.098572
v 0.103938 -1.722374 0.098572
v -0.572057 -2.114744 0.098572
v -0.038061 -1.580324 0.098572
v 0.254939 -2.140094 0.098572
v -0.030065 -1.855984 0.098572
v -0.146062 -2.540914 0.098572
v 0.186945 0.065206 -0.099426
v -0.481054 -0.602824 -0.099426
v 0.044947 0.207266 -0.099426
v -0.623067 -0.460764 -0.099426
v -0.481054 -0.602824 0.098572
v 0.186945 0.065206 0.098572
v -0.623067 -0.460764 0.098572
v 0.044947 0.207266 0.098572
v 0.763941 -0.778684 -0.099426
v 0.228938 -1.313104 -0.099426
v 0.621943 -0.636634 -0.099426
v 0.086939 -1.171054 -0.099426
v 0.637934 -1.187954 -0.099426
v 0.495936 -1.045894 -0.099426
v 0.905940 -0.920744 -0.099426
v 0.228938 -1.313104 0.098572
v 0.763941 -0.778684 0.098572
v 0.086939 -1.171054 0.098572
v 0.621943 -0.636634 0.098572
v 0.905940 -0.920744 0.098572
v 0.495936 -1.045894 0.098572
v 0.637934 -1.187954 0.098572
v 0.177943 0.340866 -0.099426
v -0.490056 -0.327154 -0.099426
v 0.035944 0.482926 -0.099426
v -0.632055 -0.185094 -0.099426
v -0.490056 -0.327154 0.098572
v 0.177943 0.340866 0.098572
v -0.632055 -0.185094 0.098572
v 0.035944 0.482926 0.098572
v 0.169947 0.616536 -0.099426
v -0.498067 -0.051494 -0.099426
v 0.027934 0.758586 -0.099426
v -0.640066 0.090566 -0.099426
v -0.498067 -0.051494 0.098572
v 0.169947 0.616536 0.098572
v -0.640066 0.090566 0.098572
v 0.027934 0.758586 0.098572
v 0.161936 0.892196 -0.099426
v -0.506063 0.224166 -0.099426
v 0.018946 1.034256 -0.099426
v -0.649053 0.366226 -0.099426
v -0.506063 0.224166 0.098572
v 0.161936 0.892196 0.098572
v -0.649053 0.366226 0.098572
v 0.018946 1.034256 0.098572
v 0.152934 1.167856 -0.099426
v -0.515066 0.499836 -0.099426
v 0.010935 1.309916 -0.099426
v -0.657064 0.641896 -0.099426
v -0.515066 0.499836 0.098572
v 0.152934 1.167856 0.098572
v -0.657064 0.641896 0.098572
v 0.010935 1.309916 0.098572
v 0.144938 1.443526 -0.099426
v -0.523061 0.775496 -0.099426
v 0.002940 1.585576 -0.099426
v -0.665060 0.917556 -0.099426
v -0.532064 1.051156 -0.099426
v -0.139059 1.727636 -0.099426
v -0.674062 1.193216 -0.099426
v -0.540060 1.326826 -0.099426
v -0.282064 1.869696 -0.099426
v -0.682058 1.468876 -0.099426
v -0.523061 0.775496 0.098572
v 0.144938 1.443526 0.098572
v -0.665060 0.917556 0.098572
v 0.002940 1.585576 0.098572
v -0.532064 1.051156 0.098572
v -0.674062 1.193216 0.098572
v -0.139059 1.727636 0.098572
v -0.282064 1.869696 0.098572
v -0.682058 1.468876 0.098572
v -0.540060 1.326826 0.098572
v -0.748067 -0.870034 -0.099426
v -1.016057 -1.137244 -0.099426
v -1.032064 -0.585914 -0.099426
v -1.300054 -0.853124 -0.099426
v -1.016057 -1.137244 0.098572
v -0.748067 -0.870034 0.098572
v -1.300054 -0.853124 0.098572
v -1.032064 -0.585914 0.098572
v 0.095942 -1.446714 -0.099426
v -0.305059 -1.847534 -0.099426
v -0.046056 -1.304654 -0.099426
v -0.447057 -1.705474 -0.099426
v -0.305059 -1.847534 0.098572
v 0.095942 -1.446714 0.098572
v -0.447057 -1.705474 0.098572
v -0.046056 -1.304654 0.098572
v 0.194941 -0.210454 -0.099426
v -0.740057 -1.145694 -0.099426
v 0.052943 -0.068394 -0.099426
v -0.882055 -1.003634 -0.099426
v -0.598058 -1.287754 -0.099426
v 0.061945 -0.344064 -0.099426
v 0.203944 -0.486124 -0.099426
v -0.740057 -1.145694 0.098572
v 0.194941 -0.210454 0.098572
v -0.882055 -1.003634 0.098572
v 0.052943 -0.068394 0.098572
v 0.203944 -0.486124 0.098572
v 0.061945 -0.344064 0.098572
v -0.598058 -1.287754 0.098572
v 0.487940 -0.770234 -0.099426
v -0.314062 -1.571864 -0.099426
v 0.345942 -0.628174 -0.099426
v -0.456060 -1.429804 -0.099426
v -0.314062 -1.571864 0.098572
v 0.487940 -0.770234 0.098572
v -0.456060 -1.429804 0.098572
v 0.345942 -0.628174 0.098572
v -0.189062 -1.162594 -0.099426
v -0.322057 -1.296204 -0.099426
v -0.757055 -0.594364 -0.099426
v -0.890066 -0.727974 -0.099426
v -0.331060 -1.020544 -0.099426
v 0.069941 -0.619724 -0.099426
v 0.211939 -0.761784 -0.099426
v -0.322057 -1.296204 0.098572
v -0.189062 -1.162594 0.098572
v -0.890066 -0.727974 0.098572
v -0.757055 -0.594364 0.098572
v 0.211939 -0.761784 0.098572
v -0.331060 -1.020544 0.098572
v 0.069941 -0.619724 0.098572
v -0.882055 -1.003634 0.098572
v 0.052943 -0.068394 0.098572
v -0.882055 -1.003634 -0.099426
v 0.052943 -0.068394 -0.099426
v 0.069941 -0.619724 0.098572
v 0.211939 -0.761784 0.098572
v 0.069941 -0.619724 -0.099426
v 0.211939 -0.761784 -0.099426
v -0.498067 -0.051494 0.098572
v -0.640066 0.090566 0.098572
v -0.498067 -0.051494 -0.099426
v -0.640066 0.090566 -0.099426
v 0.637934 -1.187954 0.098572
v 0.495936 -1.045894 0.098572
v 0.637934 -1.187954 -0.099426
v 0.495936 -1.045894 -0.099426
v 0.186945 0.065206 0.098572
v -0.481054 -0.602824 0.098572
v 0.186945 0.065206 -0.099426
v -0.481054 -0.602824 -0.099426
v -0.748067 -0.870034 0.098572
v -1.016057 -1.137244 0.098572
v -0.748067 -0.870034 -0.099426
v -1.016057 -1.137244 -0.099426
v -0.740057 -1.145694 0.098572
v 0.061945 -0.344064 0.098572
v -0.740057 -1.145694 -0.099426
v 0.061945 -0.344064 -0.099426
v -0.506063 0.224166 0.098572
v -0.649053 0.366226 0.098572
v -0.506063 0.224166 -0.099426
v -0.649053 0.366226 -0.099426
v 0.177943 0.340866 0.098572
v -0.490056 -0.327154 0.098572
v 0.177943 0.340866 -0.099426
v -0.490056 -0.327154 -0.099426
v -0.331060 -1.020544 0.098572
v 0.069941 -0.619724 0.098572
v -0.331060 -1.020544 -0.099426
v 0.069941 -0.619724 -0.099426
v -0.515066 0.499836 0.098572
v -0.657064 0.641896 0.098572
v -0.515066 0.499836 -0.099426
v -0.657064 0.641896 -0.099426
v 0.169947 0.616536 0.098572
v -0.498067 -0.051494 0.098572
v 0.169947 0.616536 -0.099426
v -0.498067 -0.051494 -0.099426
v -0.456060 -1.429804 0.098572
v 0.345942 -0.628174 0.098572
v -0.456060 -1.429804 -0.099426
v 0.345942 -0.628174 -0.099426
v -0.046056 -1.304654 0.098572
v 0.095942 -1.446714 0.098572
v -0.046056 -1.304654 -0.099426
v 0.095942 -1.446714 -0.099426
v -0.757055 -0.594364 0.098572
v -0.189062 -1.162594 0.098572
v -0.757055 -0.594364 -0.099426
v -0.189062 -1.162594 -0.099426
v -0.523061 0.775496 0.098572
v -0.665060 0.917556 0.098572
v -0.523061 0.775496 -0.099426
v -0.665060 0.917556 -0.099426
v 0.161936 0.892196 0.098572
v -0.506063 0.224166 0.098572
v 0.161936 0.892196 -0.099426
v -0.506063 0.224166 -0.099426
v 0.086939 -1.171054 0.098572
v 0.621943 -0.636634 0.098572
v 0.086939 -1.171054 -0.099426
v 0.621943 -0.636634 -0.099426
v -0.447057 -1.705474 0.098572
v -0.046056 -1.304654 0.098572
v -0.447057 -1.705474 -0.099426
v -0.046056 -1.304654 -0.099426
v -0.038061 -1.580324 0.098572
v 0.103938 -1.722374 0.098572
v -0.038061 -1.580324 -0.099426
v 0.103938 -1.722374 -0.099426
v -1.032064 -0.585914 0.098572
v -0.748067 -0.870034 0.098572
v -1.032064 -0.585914 -0.099426
v -0.748067 -0.870034 -0.099426
v -0.532064 1.051156 0.098572
v -0.674062 1.193216 0.098572
v -0.532064 1.051156 -0.099426
v -0.674062 1.193216 -0.099426
v 0.152934 1.167856 0.098572
v -0.515066 0.499836 0.098572
v 0.152934 1.167856 -0.099426
v -0.515066 0.499836 -0.099426
v -0.572057 -2.114744 0.098572
v -0.038061 -1.580324 0.098572
v -0.572057 -2.114744 -0.099426
v -0.038061 -1.580324 -0.099426
v 0.495936 -1.045894 0.098572
v 0.763941 -0.778684 0.098572
v 0.495936 -1.045894 -0.099426
v 0.763941 -0.778684 -0.099426
v -0.030065 -1.855984 0.098572
v 0.254939 -2.140094 0.098572
v -0.030065 -1.855984 -0.099426
v 0.254939 -2.140094 -0.099426
v -0.540060 1.326826 0.098572
v -0.682058 1.468876 0.098572
v -0.540060 1.326826 -0.099426
v -0.682058 1.468876 -0.099426
v 0.144938 1.443526 0.098572
v -0.523061 0.775496 0.098572
v 0.144938 1.443526 -0.099426
v -0.523061 0.775496 -0.099426
v -0.430059 -2.256794 0.098572
v -0.030065 -1.855984 0.098572
v -0.430059 -2.256794 -0.099426
v -0.030065 -1.855984 -0.099426
v 0.002940 1.585576 0.098572
v -0.532064 1.051156 0.098572
v 0.002940 1.585576 -0.099426
v -0.532064 1.051156 -0.099426
v -0.139059 1.727636 0.098572
v -0.540060 1.326826 0.098572
v -0.139059 1.727636 -0.099426
v -0.540060 1.326826 -0.099426
vn -0.7072 0.7071 -0.0000
vn -0.7072 0.7070 -0.0000
vn -0.7071 0.7071 -0.0000
vn 0.7072 0.7070 -0.0000
vn 0.7071 0.7071 -0.0000
vn -0.7072 -0.7070 -0.0000
vn -0.7073 -0.7069 -0.0000
vn 0.7070 -0.7072 -0.0000
vn 0.7069 -0.7073 -0.0000
vn -0.7068 0.7074 -0.0000
vn -0.7070 0.7072 -0.0000
vn 0.7072 0.7071 -0.0000
vn -0.7073 -0.7070 -0.0000
vn -0.7074 -0.7068 -0.0000
vn -0.7072 -0.7071 -0.0000
vn 0.7071 -0.7071 -0.0000
vn 0.7074 -0.7068 -0.0000
vn 0.7074 -0.7069 -0.0000
vn 0.7071 -0.7072 -0.0000
vn 0.7073 0.7070 -0.0000
vn 0.7073 0.7069 -0.0000
vn 0.7068 -0.7074 -0.0000
vn -0.7073 0.7069 -0.0000
vn 0.7072 -0.7070 -0.0000
vn -0.7071 0.7072 -0.0000
vn 0.7074 0.7068 -0.0000
vn -0.0000 -0.0000 -1.0000
vn -0.0002 -0.0000 1.0000
vn 0.0001 -0.0000 1.0000
vn -0.0001 -0.0000 1.0000
vn 0.0002 -0.0000 1.0000
vn -0.0000 -0.0000 1.0000
vn -0.0001 -0.0000 -1.0000
vn -0.0002 -0.0000 -1.0000
vn 0.0003 -0.0000 1.0000
vn 0.0002 -0.0000 -1.0000
vn 0.0001 -0.0000 -1.0000
vn -0.0003 -0.0000 1.0000
vn -0.7069 0.7073 -0.0000
vn -0.7071 -0.7071 -0.0000
vn 0.7074 0.7069 -0.0000
vn -0.7074 0.7068 -0.0000
vn -0.7074 0.7069 -0.0000
vn 0.7071 0.7072 -0.0000
vn 0.7073 -0.7069 -0.0000
vt 0.203125 0.515625
vt 0.250000 0.515625
vt 0.203125 0.500000
vt 0.250000 0.500000
vt 0.234375 0.484375
vt 0.234375 0.468750
vt 0.250000 0.484375
vt 0.250000 0.468750
vt 0.234375 0.500000
vt 0.234375 0.515625
vt 0.015625 0.296875
vt 0.015625 0.312500
vt 0.000000 0.296875
vt 0.000000 0.312500
vt 0.000000 0.265625
vt 0.015625 0.265625
vt 0.046875 0.281250
vt 0.000000 0.281250
vt 0.046875 0.265625
vt 0.187500 0.500000
vt 0.187500 0.484375
vt 0.218750 0.468750
vt 0.218750 0.453125
vt 0.234375 0.453125
vt 0.171875 0.484375
vt 0.171875 0.468750
vt 0.203125 0.453125
vt 0.203125 0.437500
vt 0.218750 0.437500
vt 0.046875 0.390625
vt 0.046875 0.421875
vt 0.031250 0.390625
vt 0.031250 0.421875
vt 0.046875 0.312500
vt 0.046875 0.328125
vt 0.031250 0.312500
vt 0.031250 0.328125
vt 0.062500 0.312500
vt 0.062500 0.296875
vt 0.156250 0.312500
vt 0.125000 0.312500
vt 0.156250 0.296875
vt 0.125000 0.296875
vt 0.156250 0.468750
vt 0.156250 0.453125
vt 0.187500 0.437500
vt 0.187500 0.421875
vt 0.203125 0.421875
vt 0.062500 0.375000
vt 0.062500 0.390625
vt 0.046875 0.375000
vt 0.046875 0.359375
vt 0.062500 0.359375
vt 0.062500 0.328125
vt 0.062500 0.343750
vt 0.046875 0.343750
vt 0.156250 0.328125
vt 0.093750 0.328125
vt 0.093750 0.312500
vt 0.078125 0.328125
vt 0.078125 0.312500
vt 0.140625 0.453125
vt 0.140625 0.437500
vt 0.171875 0.421875
vt 0.171875 0.406250
vt 0.187500 0.406250
vt 0.078125 0.343750
vt 0.078125 0.406250
vt 0.062500 0.406250
vt 0.140625 0.343750
vt 0.140625 0.328125
vt 0.125000 0.437500
vt 0.125000 0.421875
vt 0.156250 0.406250
vt 0.156250 0.390625
vt 0.171875 0.390625
vt 0.093750 0.343750
vt 0.093750 0.359375
vt 0.078125 0.359375
vt 0.125000 0.343750
vt 0.125000 0.359375
vt 0.109375 0.421875
vt 0.109375 0.406250
vt 0.062500 0.421875
vt 0.031250 0.406250
vt 0.140625 0.312500
vt 0.140625 0.296875
vt 0.140625 0.390625
vt 0.140625 0.375000
vt 0.156250 0.375000
vt 0.109375 0.390625
vt 0.093750 0.390625
vt 0.093750 0.406250
vt 0.109375 0.312500
vt 0.109375 0.328125
vt 0.140625 0.359375
vt 0.078125 0.390625
vt 0.125000 0.375000
vt 0.125000 0.328125
vt 0.125000 0.406250
vt 0.046875 0.296875
vt 0.109375 0.359375
vt 0.109375 0.343750
vt 0.140625 0.421875
vt 0.156250 0.437500
vt 0.171875 0.453125
vt 0.187500 0.468750
vt 0.203125 0.484375
vt 0.031250 0.296875
vt 0.031250 0.265625
vt 0.218750 0.500000
vt 0.218750 0.515625
s 1
usemtl Sword1Mtl
f 1/1/1 2/2/2 3/3/3
f 2/2/2 4/4/3 3/3/3
f 5/5/4 6/6/4 7/7/4
f 6/6/4 8/8/4 7/7/4
f 5/5/4 7/7/4 9/4/5
f 10/9/5 5/5/4 9/4/5
f 10/9/5 9/4/5 11/2/5
f 12/10/5 10/9/5 11/2/5
f 13/11/6 14/12/6 15/13/7
f 14/12/6 16/14/6 15/13/7
f 13/11/6 15/13/7 17/15/6
f 18/16/6 13/11/6 17/15/6
f 19/17/8 20/18/9 21/19/8
f 20/18/9 22/15/9 21/19/8
f 23/20/10 24/4/11 25/21/10
f 24/4/11 26/7/11 25/21/10
f 27/22/12 28/23/4 29/6/4
f 28/23/4 30/24/4 29/6/4
f 31/25/3 32/7/3 33/26/3
f 32/7/3 34/8/3 33/26/3
f 35/27/5 36/28/5 37/23/5
f 36/28/5 38/29/5 37/23/5
f 39/30/6 40/31/7 41/32/13
f 40/31/7 42/33/14 41/32/13
f 43/34/15 44/35/7 45/36/7
f 44/35/7 46/37/14 45/36/7
f 47/38/16 48/14/17 49/39/17
f 48/14/17 50/13/18 49/39/17
f 51/40/19 52/41/16 53/42/16
f 52/41/16 54/43/16 53/42/16
f 55/44/3 56/6/3 57/45/3
f 56/6/3 58/24/3 57/45/3
f 59/46/4 60/47/20 61/28/20
f 60/47/20 62/48/21 61/28/20
f 63/49/6 64/50/7 65/51/7
f 64/50/7 66/30/14 65/51/7
f 63/49/6 65/51/7 67/52/7
f 68/53/6 63/49/6 67/52/7
f 69/54/6 70/55/7 71/35/7
f 70/55/7 72/56/14 71/35/7
f 73/57/9 74/58/22 75/40/19
f 74/58/22 76/59/22 75/40/19
f 77/60/8 78/37/9 79/61/8
f 78/37/9 80/36/9 79/61/8
f 81/62/23 82/23/3 83/63/2
f 82/23/3 84/29/3 83/63/2
f 85/64/4 86/65/4 87/47/4
f 86/65/4 88/66/4 87/47/4
f 89/67/6 90/68/6 91/55/6
f 90/68/6 92/69/6 91/55/6
f 93/70/9 94/56/8 95/71/9
f 94/56/8 96/35/8 95/71/9
f 97/72/3 98/28/3 99/73/3
f 98/28/3 100/48/3 99/73/3
f 101/74/4 102/75/4 103/65/4
f 102/75/4 104/76/12 103/65/4
f 105/77/6 106/78/6 107/67/6
f 106/78/6 108/79/6 107/67/6
f 109/79/16 110/53/16 111/67/24
f 110/53/16 112/55/16 111/67/24
f 109/79/16 111/67/24 113/80/9
f 114/81/9 109/79/16 113/80/9
f 115/82/3 116/47/3 117/83/3
f 116/47/3 118/66/3 117/83/3
f 119/33/25 120/84/3 121/85/3
f 120/84/3 122/69/3 121/85/3
f 123/71/4 124/86/4 125/57/4
f 124/86/4 126/40/4 125/57/4
f 124/86/4 127/87/4 126/40/4
f 127/87/4 128/42/4 126/40/4
f 129/88/4 130/89/4 131/75/4
f 130/89/4 132/90/12 131/75/4
f 133/91/7 134/83/13 135/92/13
f 134/83/13 136/93/6 135/92/13
f 137/94/6 138/95/7 139/59/7
f 138/95/7 140/58/7 139/59/7
f 141/89/9 142/51/8 143/96/9
f 142/51/8 144/52/8 143/96/9
f 145/93/23 146/65/3 147/92/2
f 146/65/3 148/76/3 147/92/2
f 149/69/3 150/68/3 151/50/3
f 150/68/3 152/97/3 151/50/3
f 153/98/4 154/81/4 155/89/4
f 154/81/4 156/96/4 155/89/4
f 157/80/26 158/99/21 159/70/21
f 158/99/21 160/71/4 159/70/21
f 161/100/14 162/73/7 163/83/7
f 162/73/7 164/82/6 163/83/7
f 165/75/24 166/30/24 167/90/24
f 166/30/24 168/51/24 167/90/24
f 169/39/27 170/13/27 171/38/27
f 170/13/27 172/14/27 171/38/27
f 173/15/27 170/13/27 174/101/27
f 175/19/27 173/15/27 174/101/27
f 176/13/28 177/39/29 178/14/30
f 177/39/29 179/38/31 178/14/30
f 180/19/30 181/101/31 176/13/30
f 182/15/32 180/19/30 176/13/30
f 183/76/27 184/92/27 185/65/27
f 184/92/27 186/93/27 185/65/27
f 187/92/31 188/76/32 189/93/31
f 188/76/32 190/65/32 189/93/31
f 191/40/27 192/59/27 193/57/27
f 192/59/27 194/58/27 193/57/27
f 195/43/33 196/41/34 191/40/33
f 197/42/27 195/43/33 191/40/33
f 198/59/28 199/40/29 200/58/30
f 199/40/29 201/57/30 200/58/30
f 202/42/29 199/40/31 203/41/32
f 204/43/30 202/42/29 203/41/32
f 205/66/27 206/83/27 207/47/27
f 206/83/27 208/82/27 207/47/27
f 209/83/32 210/66/32 211/82/32
f 210/66/32 212/47/32 211/82/32
f 213/48/27 214/73/27 215/28/27
f 214/73/27 216/72/27 215/28/27
f 217/73/31 218/48/32 219/72/29
f 218/48/32 220/28/32 219/72/29
f 221/29/27 222/63/27 223/23/27
f 222/63/27 224/62/27 223/23/27
f 225/63/31 226/29/32 227/62/31
f 226/29/32 228/23/35 227/62/31
f 229/24/27 230/45/27 231/6/27
f 230/45/27 232/44/27 231/6/27
f 233/45/32 234/24/32 235/44/32
f 234/24/32 236/6/32 235/44/32
f 237/8/27 238/26/27 239/7/27
f 238/26/27 240/25/27 239/7/27
f 239/7/27 241/21/27 242/4/27
f 241/21/27 243/20/27 242/4/27
f 242/4/27 244/3/36 245/2/37
f 244/3/36 246/1/34 245/2/37
f 247/26/28 248/8/32 249/25/30
f 248/8/32 250/7/32 249/25/30
f 251/21/35 250/7/29 252/20/30
f 250/7/29 253/4/31 252/20/30
f 253/4/29 254/2/38 255/1/28
f 256/3/30 253/4/29 255/1/28
f 257/50/27 258/32/27 259/84/27
f 258/32/27 260/33/27 259/84/27
f 261/32/32 262/50/32 263/33/32
f 262/50/32 264/84/32 263/33/32
f 265/61/27 266/36/27 267/60/27
f 266/36/27 268/37/27 267/60/27
f 269/36/31 270/61/32 271/37/30
f 270/61/32 272/60/32 271/37/30
f 273/90/27 274/51/27 275/75/27
f 274/51/27 276/30/27 275/75/27
f 277/52/27 274/51/27 278/89/27
f 279/96/27 277/52/27 278/89/27
f 280/51/28 281/90/32 282/30/28
f 281/90/32 283/75/32 282/30/28
f 284/96/32 285/89/32 280/51/32
f 286/52/32 284/96/32 280/51/32
f 287/71/27 288/35/27 289/70/27
f 288/35/27 290/56/27 289/70/27
f 291/35/32 292/71/28 293/56/32
f 292/71/28 294/70/29 293/56/32
f 295/67/27 296/55/27 297/68/33
f 296/55/27 298/69/34 297/68/33
f 295/67/27 299/79/27 300/81/27
f 301/80/27 295/67/27 300/81/27
f 302/55/32 303/67/32 304/69/30
f 303/67/32 305/68/30 304/69/30
f 303/67/32 306/80/28 307/79/30
f 306/80/28 308/81/38 307/79/30
f 309/30/2 310/75/2 311/51/2
f 310/75/2 312/90/2 311/51/2
f 313/102/26 314/103/21 315/81/21
f 314/103/21 316/80/4 315/81/21
f 317/104/14 318/63/7 319/73/7
f 318/63/7 320/72/15 319/73/7
f 321/87/6 322/86/6 323/43/6
f 322/86/6 324/41/15 323/43/6
f 325/65/16 326/93/16 327/76/16
f 326/93/16 328/92/16 327/76/16
f 329/69/16 330/85/16 331/50/16
f 330/85/16 332/32/19 331/50/16
f 333/51/11 334/89/39 335/52/11
f 334/89/39 336/96/39 335/52/11
f 337/105/40 338/45/40 339/63/40
f 338/45/40 340/62/40 339/63/40
f 341/47/16 342/82/16 343/66/16
f 342/82/16 344/83/16 343/66/16
f 345/79/39 346/81/11 347/67/39
f 346/81/11 348/80/11 347/67/39
f 349/106/6 350/26/6 351/45/6
f 350/26/6 352/44/6 351/45/6
f 353/28/16 354/72/16 355/48/16
f 354/72/16 356/73/16 355/48/16
f 357/56/39 358/70/11 359/35/39
f 358/70/11 360/71/11 359/35/39
f 361/54/4 362/38/4 363/60/4
f 362/38/4 364/61/12 363/60/4
f 365/69/4 366/55/41 367/68/4
f 366/55/41 368/67/26 367/68/4
f 369/107/6 370/21/6 371/26/6
f 370/21/6 372/25/6 371/26/6
f 373/23/16 374/62/16 375/29/16
f 374/62/16 376/63/16 375/29/16
f 377/58/10 378/57/39 379/59/10
f 378/57/39 380/40/11 379/59/10
f 381/37/11 382/60/39 383/36/11
f 382/60/39 384/61/39 383/36/11
f 385/34/12 386/101/4 387/38/4
f 386/101/4 388/39/4 387/38/4
f 389/31/4 390/30/21 391/84/20
f 390/30/21 392/50/26 391/84/20
f 393/108/15 394/3/6 395/21/6
f 394/3/6 396/20/6 395/21/6
f 397/6/16 398/44/16 399/24/16
f 398/44/16 400/45/16 399/24/16
f 401/14/3 402/38/42 403/13/42
f 402/38/42 404/39/43 403/13/42
f 405/41/25 406/40/3 407/43/3
f 406/40/3 408/42/3 407/43/3
f 409/109/5 410/110/5 411/101/5
f 410/110/5 412/19/44 411/101/5
f 413/111/15 414/112/7 415/3/7
f 414/112/7 416/1/14 415/3/7
f 417/7/45 418/25/16 419/8/24
f 418/25/16 420/26/16 419/8/24
f 421/13/1 422/101/3 423/18/3
f 422/101/3 424/17/1 423/18/3
f 425/4/22 426/20/9 427/7/8
f 426/20/9 428/21/8 427/7/8
f 429/2/8 430/1/9 431/4/8
f 430/1/9 432/3/9 431/4/8
